<?xml version="1.0" encoding="UTF-8"?><svg id="a" xmlns="http://www.w3.org/2000/svg" viewBox="0 0 981 981"><path d="M289.45,980.5H20.23c-10.9,0-19.73-8.83-19.73-19.73V20.23C.5,9.33,9.33.5,20.23.5h940.54c10.9,0,19.73,8.83,19.73,19.73v132.1c0,5.23-2.08,10.25-5.78,13.95l-60.54,60.54c-12.43,12.43-33.68,3.63-33.68-13.95v-92.65c0-10.89-8.82-19.72-19.72-19.72-236.26,0-504.31,0-740.57,0-10.89,0-19.72,8.82-19.72,19.72,0,108.52,0,632.03,0,740.56,0,10.9,8.83,19.72,19.73,19.72,41.69,0,78.18,0,120.78,0,6,0,11.67,2.73,15.41,7.41l48.43,60.54c10.33,12.92,1.14,32.05-15.41,32.05Z" fill="#eaeaea" stroke="#1d1d1b" stroke-miterlimit="10"/><path d="M538.15,880.5c100.95,0,222.93,0,325.16,0,9.5,0,17.19-7.7,17.19-17.2v-336.16c0-4.28,1.59-8.4,4.47-11.57l65.61-72.17c10.57-11.63,29.92-4.15,29.92,11.57v508.33c0,9.5-7.7,17.2-17.2,17.2h-484.19c-14.89,0-22.74-17.63-12.78-28.7l59.05-65.61c3.26-3.62,7.9-5.69,12.78-5.69Z" fill="#eaeaea" stroke="#1d1d1b" stroke-miterlimit="10"/><rect x="880.5" y="150.17" width="100" height="397.33" fill="#eaeaea" stroke="#1d1d1b" stroke-miterlimit="10"/><rect x="208.83" y="880.5" width="416" height="100" fill="#eaeaea" stroke="#1d1d1b" stroke-miterlimit="10"/><rect x="425.83" y="388.08" width="129.33" height="381.75" rx="46.67" ry="46.67" fill="#eaeaea" stroke="#1d1d1b" stroke-miterlimit="10"/><rect x="425.83" y="211.17" width="129.33" height="130" rx="64.67" ry="64.67" fill="#eaeaea" stroke="#1d1d1b" stroke-miterlimit="10"/></svg>