<?xml version="1.0" encoding="UTF-8"?><svg id="a" xmlns="http://www.w3.org/2000/svg" viewBox="0 0 1011 998.52"><path d="M1003.91,357.4L399.45,990.65c-10,10.48-26.96,9.67-35.93-1.71l-229.93-291.83c-7.47-9.48-6.67-23.04,1.87-31.57l86.34-86.34c10-10,26.45-9.13,35.34,1.86l136.58,168.71c8.94,11.05,25.51,11.85,35.48,1.72L969.71,201.97c14.94-15.19,40.79-4.61,40.79,16.7v122.29c0,6.12-2.36,12.01-6.59,16.44Z" fill="#eaeaea" stroke="#1d1d1b" stroke-miterlimit="10"/><path d="M289.45,980.5H20.23c-10.9,0-19.73-8.83-19.73-19.73V20.23C.5,9.33,9.33.5,20.23.5h940.54c10.9,0,19.73,8.83,19.73,19.73v132.1c0,5.23-2.08,10.25-5.78,13.95l-60.54,60.54c-12.43,12.43-33.68,3.63-33.68-13.95v-92.65c0-10.89-8.82-19.72-19.72-19.72-236.26,0-504.31,0-740.57,0-10.89,0-19.72,8.82-19.72,19.72,0,108.52,0,632.03,0,740.56,0,10.9,8.83,19.72,19.73,19.72,41.69,0,78.18,0,120.78,0,6,0,11.67,2.73,15.41,7.41l48.43,60.54c10.33,12.92,1.14,32.05-15.41,32.05Z" fill="#eaeaea" stroke="#1d1d1b" stroke-miterlimit="10"/><path d="M538.15,880.5c100.95,0,222.93,0,325.16,0,9.5,0,17.19-7.7,17.19-17.2v-336.16c0-4.28,1.59-8.4,4.47-11.57l65.61-72.17c10.57-11.63,29.92-4.15,29.92,11.57v508.33c0,9.5-7.7,17.2-17.2,17.2h-484.19c-14.89,0-22.74-17.63-12.78-28.7l59.05-65.61c3.26-3.62,7.9-5.69,12.78-5.69Z" fill="#eaeaea" stroke="#1d1d1b" stroke-miterlimit="10"/></svg>